<?xml version="1.0" encoding="UTF-8" standalone="no"?>
<!-- Created with Inkscape (http://www.inkscape.org/) -->

<svg
   width="300mm"
   height="300mm"
   viewBox="0 0 300 300"
   version="1.1"
   id="svg5"
   xml:space="preserve"
   xmlns:xlink="http://www.w3.org/1999/xlink"
   xmlns="http://www.w3.org/2000/svg"
   xmlns:svg="http://www.w3.org/2000/svg"><defs
     id="defs2"><linearGradient
       id="linearGradient2127"><stop
         style="stop-color:#3d1f1d;stop-opacity:1;"
         offset="0"
         id="stop2123" /><stop
         style="stop-color:#df643f;stop-opacity:1;"
         offset="1"
         id="stop2125" /></linearGradient><linearGradient
       xlink:href="#linearGradient2127"
       id="linearGradient2129"
       x1="144.1599"
       y1="0.50084764"
       x2="146.05147"
       y2="327.97519"
       gradientUnits="userSpaceOnUse" /></defs><g
     id="layer1"><rect
       style="fill:url(#linearGradient2129);stroke-width:5.97699;stroke-linejoin:round;stop-color:#000000;fill-opacity:1"
       id="rect378"
       width="300"
       height="300"
       x="0"
       y="0" /><path
       style="fill:#ed7912;fill-opacity:0.110294;stroke-width:0.347804;stroke-linejoin:round;stroke-dasharray:none;stop-color:#000000"
       id="path2531"
       d="M 158.23562,60.822205 A 155.38457,155.38457 0 0 1 311.60078,218.19688 155.38457,155.38457 0 0 1 154.22949,371.56552 155.38457,155.38457 0 0 1 0.85738183,214.1976 155.38457,155.38457 0 0 1 158.22191,60.822029 l -1.99278,155.371791 z" /><path
       style="fill:#ed7912;fill-opacity:0.531863;stroke-width:0.458341;stroke-linejoin:round;stroke-dasharray:none;stop-color:#000000"
       id="path2533"
       d="M 157.90501,86.422335 A 129.7823,129.7823 0 0 1 286.00064,217.86684 129.7823,129.7823 0 0 1 154.55896,345.96537 129.7823,129.7823 0 0 1 26.457533,214.52651 129.7823,129.7823 0 0 1 157.89357,86.422188 l -1.66444,129.771632 z" /><path
       style="fill:#ed7912;fill-opacity:1;stroke-width:0.263453;stroke-linejoin:round;stroke-dasharray:none;stop-color:#000000"
       id="path2088"
       d="M 157.63482,107.34483 A 108.85806,108.85806 0 0 1 265.07814,217.59711 108.85806,108.85806 0 0 1 154.82824,325.04287 108.85806,108.85806 0 0 1 47.380047,214.79533 108.85806,108.85806 0 0 1 157.62522,107.34471 l -1.39609,108.84911 z" /><path
       style="fill:#3d1f1d;stroke:none;stroke-width:0.264583px;stroke-linecap:butt;stroke-linejoin:miter;stroke-opacity:1;fill-opacity:1"
       d="m 158.39791,114.38258 0,166.57187 -14.77146,-8.80933 V 123.24781 Z"
       id="path696" /><path
       style="fill:#6a2200;stroke:none;stroke-width:0.264583px;stroke-linecap:butt;stroke-linejoin:miter;stroke-opacity:1;fill-opacity:1"
       d="m 158.39791,114.38258 0,166.57187 14.77146,-8.80933 V 123.24781 Z"
       id="path698" /><path
       style="fill:#190d0d;fill-opacity:1;stroke:none;stroke-width:0.264583px;stroke-linecap:butt;stroke-linejoin:miter;stroke-opacity:1"
       d="M 300.40933,259.98059 H 0.4093155 L 0,300 h 300 z"
       id="path694" /><g
       id="g2034"
       transform="translate(-1.1123449)"
       style="fill:#190d0d;fill-opacity:1;stroke:none"><path
         id="path723"
         style="fill:#190d0d;fill-opacity:1;stroke:none;stroke-width:0.1;stroke-linecap:butt;stroke-linejoin:miter;stroke-dasharray:none;stroke-opacity:1"
         d="m 289.31205,212.03584 -4.63361,23.99998 h 2.32087 l -2.32087,12.02096 h 1.69467 l -1.69467,8.77762 h 3.55203 v 14.61382 h 1.08158 1.08171 V 256.8344 h 3.55203 l -1.69467,-8.77762 h 1.69467 l -2.32087,-12.02096 h 2.32087 z" /><path
         id="path725"
         style="fill:#190d0d;fill-opacity:1;stroke:none;stroke-width:0.1;stroke-linecap:butt;stroke-linejoin:miter;stroke-dasharray:none;stroke-opacity:1"
         d="m 263.51332,214.55279 -4.63361,23.99998 h 2.32087 l -2.32087,12.02096 h 1.69467 l -1.69467,8.77762 h 3.55203 v 14.61382 h 1.08158 1.08171 v -14.61382 h 3.55203 l -1.69467,-8.77762 h 1.69467 l -2.32087,-12.02096 h 2.32087 z" /><path
         id="path727"
         style="fill:#190d0d;fill-opacity:1;stroke:none;stroke-width:0.1;stroke-linecap:butt;stroke-linejoin:miter;stroke-dasharray:none;stroke-opacity:1"
         d="m 231.42222,207.63118 -4.63361,23.99998 h 2.32087 l -2.32087,12.02096 h 1.69467 l -1.69467,8.77762 h 3.55203 v 14.61382 h 1.08158 1.08171 v -14.61382 h 3.55203 l -1.69467,-8.77762 h 1.69467 l -2.32087,-12.02096 h 2.32087 z" /><path
         id="path729"
         style="fill:#190d0d;fill-opacity:1;stroke:none;stroke-width:0.1;stroke-linecap:butt;stroke-linejoin:miter;stroke-dasharray:none;stroke-opacity:1"
         d="m 219.46671,227.13754 -4.63361,23.99998 h 2.32087 l -2.32087,12.02096 h 1.69467 l -1.69467,8.77762 h 3.55203 v 14.61382 h 1.08158 1.08171 V 271.9361 h 3.55203 l -1.69467,-8.77762 h 1.69467 l -2.32087,-12.02096 h 2.32087 z" /><path
         id="path731"
         style="fill:#190d0d;fill-opacity:1;stroke:none;stroke-width:0.1;stroke-linecap:butt;stroke-linejoin:miter;stroke-dasharray:none;stroke-opacity:1"
         d="m 206.25273,206.37271 -4.63361,23.99998 h 2.32087 l -2.32087,12.02096 h 1.69467 l -1.69467,8.77762 h 3.55203 v 14.61382 h 1.08158 1.08171 v -14.61382 h 3.55203 l -1.69467,-8.77762 h 1.69467 l -2.32087,-12.02096 h 2.32087 z" /><path
         id="path733"
         style="fill:#190d0d;fill-opacity:1;stroke:none;stroke-width:0.1;stroke-linecap:butt;stroke-linejoin:miter;stroke-dasharray:none;stroke-opacity:1"
         d="m 186.11713,226.5083 -4.63361,23.99998 h 2.32087 l -2.32087,12.02096 h 1.69467 l -1.69467,8.77762 h 3.55203 v 14.61382 h 1.08158 1.08171 v -14.61382 h 3.55203 l -1.69467,-8.77762 h 1.69467 L 188.43,250.50828 h 2.32087 z" /><path
         id="path735"
         style="fill:#190d0d;fill-opacity:1;stroke:none;stroke-width:0.1;stroke-linecap:butt;stroke-linejoin:miter;stroke-dasharray:none;stroke-opacity:1"
         d="m 171.01544,212.03584 -4.63361,23.99998 h 2.32087 l -2.32087,12.02096 h 1.69467 l -1.69467,8.77762 h 3.55203 v 14.61382 h 1.08158 1.08171 V 256.8344 h 3.55203 l -1.69467,-8.77762 h 1.69467 l -2.32087,-12.02096 h 2.32087 z" /><path
         id="path737"
         style="fill:#190d0d;fill-opacity:1;stroke:none;stroke-width:0.1;stroke-linecap:butt;stroke-linejoin:miter;stroke-dasharray:none;stroke-opacity:1"
         d="m 147.73366,223.99135 -4.63361,23.99998 h 2.32087 l -2.32087,12.02096 h 1.69467 l -1.69467,8.77762 h 3.55203 v 14.61382 h 1.08158 1.08171 v -14.61382 h 3.55203 l -1.69467,-8.77762 h 1.69467 l -2.32087,-12.02096 h 2.32087 z" /><path
         id="path739"
         style="fill:#190d0d;fill-opacity:1;stroke:none;stroke-width:0.1;stroke-linecap:butt;stroke-linejoin:miter;stroke-dasharray:none;stroke-opacity:1"
         d="m 127.59807,213.92356 -4.63361,23.99998 h 2.32087 l -2.32087,12.02096 h 1.69467 l -1.69467,8.77762 h 3.55203 v 14.61382 h 1.08158 1.08171 v -14.61382 h 3.55203 l -1.69467,-8.77762 h 1.69467 l -2.32087,-12.02096 h 2.32087 z" /><path
         id="path741"
         style="fill:#190d0d;fill-opacity:1;stroke:none;stroke-width:0.1;stroke-linecap:butt;stroke-linejoin:miter;stroke-dasharray:none;stroke-opacity:1"
         d="m 112.49637,222.73288 -4.63361,23.99998 h 2.32087 l -2.32087,12.02096 h 1.69467 l -1.69467,8.77762 h 3.55203 v 14.61382 h 1.08158 1.08171 v -14.61382 h 3.55203 l -1.69467,-8.77762 h 1.69467 l -2.32087,-12.02096 h 2.32087 z" /><path
         id="path743"
         style="fill:#190d0d;fill-opacity:1;stroke:none;stroke-width:0.1;stroke-linecap:butt;stroke-linejoin:miter;stroke-dasharray:none;stroke-opacity:1"
         d="m 98.023914,210.77737 -4.63361,23.99998 h 2.32087 l -2.32087,12.02096 h 1.69467 l -1.69467,8.77762 h 3.55203 v 14.61382 h 1.08158 1.08171 v -14.61382 h 3.552026 l -1.69467,-8.77762 h 1.69467 l -2.32087,-12.02096 h 2.32087 z" /><path
         id="path745"
         style="fill:#190d0d;fill-opacity:1;stroke:none;stroke-width:0.1;stroke-linecap:butt;stroke-linejoin:miter;stroke-dasharray:none;stroke-opacity:1"
         d="m 82.92222,223.36211 -4.63361,23.99998 h 2.32087 l -2.32087,12.02096 h 1.69467 l -1.69467,8.77762 h 3.55203 v 14.61382 h 1.08158 1.08171 v -14.61382 h 3.55203 l -1.69467,-8.77762 h 1.69467 l -2.32087,-12.02096 h 2.32087 z" /><path
         id="path747"
         style="fill:#190d0d;fill-opacity:1;stroke:none;stroke-width:0.1;stroke-linecap:butt;stroke-linejoin:miter;stroke-dasharray:none;stroke-opacity:1"
         d="m 70.966711,208.26042 -4.63361,23.99998 h 2.32087 l -2.32087,12.02096 h 1.69467 l -1.69467,8.77762 h 3.55203 v 14.61382 h 1.08158 1.08171 v -14.61382 h 3.55203 l -1.69467,-8.77762 h 1.69467 l -2.32087,-12.02096 h 2.32087 z" /><path
         id="path749"
         style="fill:#190d0d;fill-opacity:1;stroke:none;stroke-width:0.1;stroke-linecap:butt;stroke-linejoin:miter;stroke-dasharray:none;stroke-opacity:1"
         d="m 57.752728,224.62059 -4.63361,23.99998 h 2.32087 l -2.32087,12.02096 h 1.69467 l -1.69467,8.77762 h 3.55203 v 14.61382 h 1.08158 1.08171 v -14.61382 h 3.55203 l -1.69467,-8.77762 h 1.69467 l -2.32087,-12.02096 h 2.32087 z" /><path
         id="path751"
         style="fill:#190d0d;fill-opacity:1;stroke:none;stroke-width:0.1;stroke-linecap:butt;stroke-linejoin:miter;stroke-dasharray:none;stroke-opacity:1"
         d="m 45.79722,208.26042 -4.63361,23.99998 h 2.32087 l -2.32087,12.02096 h 1.69467 l -1.69467,8.77762 h 3.55203 v 14.61382 h 1.08158 1.08171 v -14.61382 h 3.55203 l -1.69467,-8.77762 h 1.69467 L 48.11009,232.2604 h 2.32087 z" /><path
         id="path753"
         style="fill:#190d0d;fill-opacity:1;stroke:none;stroke-width:0.1;stroke-linecap:butt;stroke-linejoin:miter;stroke-dasharray:none;stroke-opacity:1"
         d="m 22.51544,223.36211 -4.63361,23.99998 h 2.32087 l -2.32087,12.02096 h 1.69467 l -1.69467,8.77762 h 3.55203 v 14.61382 h 1.08158 1.08171 v -14.61382 h 3.55203 l -1.69467,-8.77762 h 1.69467 l -2.32087,-12.02096 h 2.32087 z" /><path
         id="path715"
         style="fill:#190d0d;fill-opacity:1;stroke:none;stroke-width:0.1;stroke-linecap:butt;stroke-linejoin:miter;stroke-dasharray:none;stroke-opacity:1"
         d="m 6.1552704,215.18203 -4.63361,23.99998 h 2.32087 l -2.32087,12.02096 h 1.69467 l -1.69467,8.77762 h 3.55203 v 14.61382 h 1.08158 1.08171 V 259.98059 H 10.78901 L 9.0943404,251.20297 H 10.78901 L 8.4681404,239.18201 H 10.78901 Z" /><path
         id="path1240"
         style="fill:#190d0d;fill-opacity:1;stroke:none;stroke-width:0.1;stroke-linecap:butt;stroke-linejoin:miter;stroke-dasharray:none;stroke-opacity:1"
         d="m 274.64647,232.61883 -4.6336,23.99998 h 1.69467 l -1.69467,8.77762 h 3.55203 v 14.61382 h 1.08157 1.08158 v -14.61382 h 3.55217 l -1.69467,-8.77762 h 1.69467 z" /><path
         id="path1242"
         style="fill:#190d0d;fill-opacity:1;stroke:none;stroke-width:0.1;stroke-linecap:butt;stroke-linejoin:miter;stroke-dasharray:none;stroke-opacity:1"
         d="m 255.14011,223.8095 -4.6336,23.99998 h 1.69467 l -1.69467,8.77762 h 3.55203 v 14.61382 h 1.08157 1.08158 V 256.5871 h 3.55217 l -1.69467,-8.77762 h 1.69467 z" /><path
         id="path1244"
         style="fill:#190d0d;fill-opacity:1;stroke:none;stroke-width:0.1;stroke-linecap:butt;stroke-linejoin:miter;stroke-dasharray:none;stroke-opacity:1"
         d="m 238.77994,246.46205 -4.6336,23.99998 h 1.69467 l -1.69467,8.77762 h 3.55203 v 14.61382 h 1.08157 1.08158 v -14.61382 h 3.55217 l -1.69467,-8.77762 h 1.69467 z" /><path
         id="path1246"
         style="fill:#190d0d;fill-opacity:1;stroke:none;stroke-width:0.1;stroke-linecap:butt;stroke-linejoin:miter;stroke-dasharray:none;stroke-opacity:1"
         d="m 221.1613,226.32645 -4.6336,23.99998 h 1.69467 l -1.69467,8.77762 h 3.55203 v 14.61382 h 1.08157 1.08158 v -14.61382 h 3.55217 l -1.69467,-8.77762 h 1.69467 z" /><path
         id="path1248"
         style="fill:#190d0d;fill-opacity:1;stroke:none;stroke-width:0.1;stroke-linecap:butt;stroke-linejoin:miter;stroke-dasharray:none;stroke-opacity:1"
         d="m 197.25028,239.54044 -4.6336,23.99998 h 1.69467 l -1.69467,8.77762 h 3.55203 v 14.61382 h 1.08157 1.08158 v -14.61382 h 3.55217 l -1.69467,-8.77762 h 1.69467 z" /><path
         id="path1250"
         style="fill:#190d0d;fill-opacity:1;stroke:none;stroke-width:0.1;stroke-linecap:butt;stroke-linejoin:miter;stroke-dasharray:none;stroke-opacity:1"
         d="m 180.89011,228.8434 -4.6336,23.99998 h 1.69467 l -1.69467,8.77762 h 3.55203 v 14.61382 h 1.08157 1.08158 V 261.621 h 3.55217 l -1.69467,-8.77762 h 1.69467 z" /><path
         id="path1252"
         style="fill:#190d0d;fill-opacity:1;stroke:none;stroke-width:0.1;stroke-linecap:butt;stroke-linejoin:miter;stroke-dasharray:none;stroke-opacity:1"
         d="m 160.12528,242.68662 -4.6336,23.99998 h 1.69467 l -1.69467,8.77762 h 3.55203 v 14.61382 h 1.08157 1.08158 v -14.61382 h 3.55217 l -1.69467,-8.77762 h 1.69467 z" /><path
         id="path1254"
         style="fill:#190d0d;fill-opacity:1;stroke:none;stroke-width:0.1;stroke-linecap:butt;stroke-linejoin:miter;stroke-dasharray:none;stroke-opacity:1"
         d="m 149.42825,227.58493 -4.6336,23.99998 h 1.69467 l -1.69467,8.77762 h 3.55203 v 14.61382 h 1.08157 1.08158 v -14.61382 h 3.55217 l -1.69467,-8.77762 h 1.69467 z" /><path
         id="path1256"
         style="fill:#190d0d;fill-opacity:1;stroke:none;stroke-width:0.1;stroke-linecap:butt;stroke-linejoin:miter;stroke-dasharray:none;stroke-opacity:1"
         d="m 134.95579,240.79891 -4.6336,23.99998 h 1.69467 l -1.69467,8.77762 h 3.55203 v 14.61382 h 1.08157 1.08158 v -14.61382 h 3.55217 l -1.69467,-8.77762 h 1.69467 z" /><path
         id="path1258"
         style="fill:#190d0d;fill-opacity:1;stroke:none;stroke-width:0.1;stroke-linecap:butt;stroke-linejoin:miter;stroke-dasharray:none;stroke-opacity:1"
         d="m 128.66342,225.69722 -4.6336,23.99998 h 1.69467 l -1.69467,8.77762 h 3.55203 v 14.61382 h 1.08157 1.08158 v -14.61382 h 3.55217 l -1.69467,-8.77762 h 1.69467 z" /><path
         id="path1260"
         style="fill:#190d0d;fill-opacity:1;stroke:none;stroke-width:0.1;stroke-linecap:butt;stroke-linejoin:miter;stroke-dasharray:none;stroke-opacity:1"
         d="m 119.8541,240.16967 -4.6336,23.99998 h 1.69467 l -1.69467,8.77762 h 3.55203 v 14.61382 h 1.08157 1.08158 v -14.61382 h 3.55217 l -1.69467,-8.77762 h 1.69467 z" /><path
         id="path1262"
         style="fill:#190d0d;fill-opacity:1;stroke:none;stroke-width:0.1;stroke-linecap:butt;stroke-linejoin:miter;stroke-dasharray:none;stroke-opacity:1"
         d="m 106.01087,230.73111 -4.6336,23.99998 h 1.69467 l -1.69467,8.77762 h 3.55203 v 14.61382 h 1.08157 1.08158 v -14.61382 h 3.55217 l -1.69467,-8.77762 h 1.69467 z" /><path
         id="path1264"
         style="fill:#190d0d;fill-opacity:1;stroke:none;stroke-width:0.1;stroke-linecap:butt;stroke-linejoin:miter;stroke-dasharray:none;stroke-opacity:1"
         d="m 82.729095,234.50654 -4.6336,23.99998 h 1.69467 l -1.69467,8.77762 h 3.55203 v 14.61382 h 1.08157 1.08158 v -14.61382 h 3.55217 l -1.69467,-8.77762 h 1.69467 z" /><path
         id="path1266"
         style="fill:#190d0d;fill-opacity:1;stroke:none;stroke-width:0.1;stroke-linecap:butt;stroke-linejoin:miter;stroke-dasharray:none;stroke-opacity:1"
         d="m 59.447316,225.69722 -4.6336,23.99998 h 1.69467 l -1.69467,8.77762 h 3.55203 v 14.61382 h 1.08157 1.08158 v -14.61382 h 3.55217 l -1.69467,-8.77762 h 1.69467 z" /><path
         id="path1268"
         style="fill:#190d0d;fill-opacity:1;stroke:none;stroke-width:0.1;stroke-linecap:butt;stroke-linejoin:miter;stroke-dasharray:none;stroke-opacity:1"
         d="m 36.165536,235.13577 -4.6336,23.99998 h 1.69467 l -1.69467,8.77762 h 3.55203 v 14.61382 h 1.08157 1.08158 v -14.61382 h 3.55217 l -1.69467,-8.77762 h 1.69467 z" /><path
         id="path1270"
         style="fill:#190d0d;fill-opacity:1;stroke:none;stroke-width:0.1;stroke-linecap:butt;stroke-linejoin:miter;stroke-dasharray:none;stroke-opacity:1"
         d="m 12.254519,237.02349 -4.6336,23.99998 h 1.69467 l -1.69467,8.77762 h 3.55203 v 14.61382 h 1.08157 1.08158 v -14.61382 h 3.55217 l -1.69467,-8.77762 h 1.69467 z" /><path
         id="path1272"
         style="fill:#190d0d;fill-opacity:1;stroke:none;stroke-width:0.1;stroke-linecap:butt;stroke-linejoin:miter;stroke-dasharray:none;stroke-opacity:1"
         d="m 62.593502,241.42815 -4.6336,23.99998 h 1.69467 l -1.69467,8.77762 h 3.55203 v 14.61382 h 1.08157 1.08158 v -14.61382 h 3.55217 l -1.69467,-8.77762 h 1.69467 z" /><path
         id="path1274"
         style="fill:#190d0d;fill-opacity:1;stroke:none;stroke-width:0.1;stroke-linecap:butt;stroke-linejoin:miter;stroke-dasharray:none;stroke-opacity:1"
         d="m 82.729095,249.60823 -4.6336,23.99998 h 1.69467 l -1.69467,8.77762 h 3.55203 v 14.61382 h 1.08157 1.08158 v -14.61382 h 3.55217 l -1.69467,-8.77762 h 1.69467 z" /><path
         id="path1276"
         style="fill:#190d0d;fill-opacity:1;stroke:none;stroke-width:0.1;stroke-linecap:butt;stroke-linejoin:miter;stroke-dasharray:none;stroke-opacity:1"
         d="m 102.86469,249.60823 -4.633601,23.99998 h 1.69467 l -1.69467,8.77762 h 3.552031 v 14.61382 h 1.08157 1.08158 v -14.61382 h 3.55217 l -1.69467,-8.77762 h 1.69467 z" /><path
         id="path1278"
         style="fill:#190d0d;fill-opacity:1;stroke:none;stroke-width:0.1;stroke-linecap:butt;stroke-linejoin:miter;stroke-dasharray:none;stroke-opacity:1"
         d="m 138.73121,246.46205 -4.6336,23.99998 h 1.69467 l -1.69467,8.77762 h 3.55203 v 14.61382 h 1.08157 1.08158 v -14.61382 h 3.55217 l -1.69467,-8.77762 h 1.69467 z" /><path
         id="path1280"
         style="fill:#190d0d;fill-opacity:1;stroke:none;stroke-width:0.1;stroke-linecap:butt;stroke-linejoin:miter;stroke-dasharray:none;stroke-opacity:1"
         d="m 157.60833,238.9112 -4.6336,23.99998 h 1.69467 l -1.69467,8.77762 h 3.55203 v 14.61382 h 1.08157 1.08158 V 271.6888 h 3.55217 l -1.69467,-8.77762 h 1.69467 z" /><path
         id="path1282"
         style="fill:#190d0d;fill-opacity:1;stroke:none;stroke-width:0.1;stroke-linecap:butt;stroke-linejoin:miter;stroke-dasharray:none;stroke-opacity:1"
         d="m 177.11469,245.83281 -4.6336,23.99998 h 1.69467 l -1.69467,8.77762 h 3.55203 v 14.61382 h 1.08157 1.08158 v -14.61382 h 3.55217 l -1.69467,-8.77762 h 1.69467 z" /><path
         id="path1284"
         style="fill:#190d0d;fill-opacity:1;stroke:none;stroke-width:0.1;stroke-linecap:butt;stroke-linejoin:miter;stroke-dasharray:none;stroke-opacity:1"
         d="m 215.49816,251.49594 -4.6336,23.99998 h 1.69467 l -1.69467,8.77762 h 3.55203 v 14.61382 h 1.08157 1.08158 v -14.61382 h 3.55217 l -1.69467,-8.77762 h 1.69467 z" /><path
         id="path1286"
         style="fill:#190d0d;fill-opacity:1;stroke:none;stroke-width:0.1;stroke-linecap:butt;stroke-linejoin:miter;stroke-dasharray:none;stroke-opacity:1"
         d="m 255.14011,243.9451 -4.6336,23.99998 h 1.69467 l -1.69467,8.77762 h 3.55203 v 14.61382 h 1.08157 1.08158 V 276.7227 h 3.55217 l -1.69467,-8.77762 h 1.69467 z" /><path
         id="path1288"
         style="fill:#190d0d;fill-opacity:1;stroke:none;stroke-width:0.1;stroke-linecap:butt;stroke-linejoin:miter;stroke-dasharray:none;stroke-opacity:1"
         d="m 273.38799,248.979 -4.6336,23.99998 h 1.69467 l -1.69467,8.77762 h 3.55203 v 14.61382 h 1.08157 1.08158 V 281.7566 h 3.55217 l -1.69467,-8.77762 h 1.69467 z" /><path
         id="path1290"
         style="fill:#190d0d;fill-opacity:1;stroke:none;stroke-width:0.1;stroke-linecap:butt;stroke-linejoin:miter;stroke-dasharray:none;stroke-opacity:1"
         d="m 285.3435,235.76501 -4.6336,23.99998 h 1.69467 l -1.69467,8.77762 h 3.55203 v 14.61382 h 1.08157 1.08158 v -14.61382 h 3.55217 l -1.69467,-8.77762 h 1.69467 z" /><path
         id="path1292"
         style="fill:#190d0d;fill-opacity:1;stroke:none;stroke-width:0.1;stroke-linecap:butt;stroke-linejoin:miter;stroke-dasharray:none;stroke-opacity:1"
         d="m 44.345621,238.28196 -4.6336,23.99998 h 1.69467 l -1.69467,8.77762 h 3.55203 v 14.61382 h 1.08157 1.08158 v -14.61382 h 3.55217 l -1.69467,-8.77762 h 1.69467 z" /><path
         id="path1294"
         style="fill:#190d0d;fill-opacity:1;stroke:none;stroke-width:0.1;stroke-linecap:butt;stroke-linejoin:miter;stroke-dasharray:none;stroke-opacity:1"
         d="m 22.322316,251.49594 -4.6336,23.99998 h 1.69467 l -1.69467,8.77762 h 3.55203 v 14.61382 h 1.08157 1.08158 v -14.61382 h 3.55217 l -1.69467,-8.77762 h 1.69467 z" /><path
         id="path1296"
         style="fill:#190d0d;fill-opacity:1;stroke:none;stroke-width:0.1;stroke-linecap:butt;stroke-linejoin:miter;stroke-dasharray:none;stroke-opacity:1"
         d="m 15.400705,249.60823 -4.6336,23.99998 h 1.69467 l -1.69467,8.77762 h 3.55203 v 14.61382 h 1.08157 1.08158 v -14.61382 h 3.55217 l -1.69467,-8.77762 h 1.69467 z" /><path
         id="path1298"
         style="fill:#190d0d;fill-opacity:1;stroke:none;stroke-width:0.1;stroke-linecap:butt;stroke-linejoin:miter;stroke-dasharray:none;stroke-opacity:1"
         d="m 36.794773,247.72052 -4.6336,23.99998 h 1.69467 l -1.69467,8.77762 h 3.55203 v 14.61382 h 1.08157 1.08158 v -14.61382 h 3.55217 l -1.69467,-8.77762 h 1.69467 z" /><path
         id="path1300"
         style="fill:#190d0d;fill-opacity:1;stroke:none;stroke-width:0.1;stroke-linecap:butt;stroke-linejoin:miter;stroke-dasharray:none;stroke-opacity:1"
         d="m 60.70579,249.60823 -4.6336,23.99998 h 1.69467 l -1.69467,8.77762 h 3.55203 v 14.61382 h 1.08157 1.08158 v -14.61382 h 3.55217 l -1.69467,-8.77762 h 1.69467 z" /><path
         id="path1302"
         style="fill:#190d0d;fill-opacity:1;stroke:none;stroke-width:0.1;stroke-linecap:butt;stroke-linejoin:miter;stroke-dasharray:none;stroke-opacity:1"
         d="m 75.178248,236.39425 -4.6336,23.99998 h 1.69467 l -1.69467,8.77762 h 3.55203 v 14.61382 h 1.08157 1.08158 v -14.61382 h 3.55217 l -1.69467,-8.77762 h 1.69467 z" /><path
         id="path1304"
         style="fill:#190d0d;fill-opacity:1;stroke:none;stroke-width:0.1;stroke-linecap:butt;stroke-linejoin:miter;stroke-dasharray:none;stroke-opacity:1"
         d="m 92.167655,236.39425 -4.6336,23.99998 h 1.69467 l -1.69467,8.77762 h 3.55203 v 14.61382 h 1.08157 1.08158 v -14.61382 h 3.55217 l -1.69467,-8.77762 h 1.69467 z" /><path
         id="path1306"
         style="fill:#190d0d;fill-opacity:1;stroke:none;stroke-width:0.1;stroke-linecap:butt;stroke-linejoin:miter;stroke-dasharray:none;stroke-opacity:1"
         d="m 117.33715,245.20357 -4.6336,23.99998 h 1.69467 l -1.69467,8.77762 h 3.55203 v 14.61382 h 1.08157 1.08158 v -14.61382 h 3.55217 l -1.69467,-8.77762 h 1.69467 z" /><path
         id="path1308"
         style="fill:#190d0d;fill-opacity:1;stroke:none;stroke-width:0.1;stroke-linecap:butt;stroke-linejoin:miter;stroke-dasharray:none;stroke-opacity:1"
         d="m 150.68672,247.09128 -4.6336,23.99998 h 1.69467 l -1.69467,8.77762 h 3.55203 v 14.61382 h 1.08157 1.08158 v -14.61382 h 3.55217 l -1.69467,-8.77762 h 1.69467 z" /><path
         id="path1310"
         style="fill:#190d0d;fill-opacity:1;stroke:none;stroke-width:0.1;stroke-linecap:butt;stroke-linejoin:miter;stroke-dasharray:none;stroke-opacity:1"
         d="m 168.30537,242.68662 -4.6336,23.99998 h 1.69467 l -1.69467,8.77762 h 3.55203 v 14.61382 h 1.08157 1.08158 v -14.61382 h 3.55217 l -1.69467,-8.77762 h 1.69467 z" /><path
         id="path1314"
         style="fill:#190d0d;fill-opacity:1;stroke:none;stroke-width:0.1;stroke-linecap:butt;stroke-linejoin:miter;stroke-dasharray:none;stroke-opacity:1"
         d="m 233.86756,248.79013 c -1.54454,7.99995 -3.08907,15.99989 -4.63361,23.99984 1.18401,0 2.36802,0 3.55203,0 0,4.87127 0,9.74254 0,14.61382 0.72105,0 1.4421,0 2.16315,0 0,-4.87128 0,-9.74255 0,-14.61382 1.18406,0 2.36812,0 3.55217,0 -1.54458,-7.99995 -3.08916,-15.99989 -4.63374,-23.99984 z" /><path
         id="path1316"
         style="fill:#190d0d;fill-opacity:1;stroke:none;stroke-width:0.1;stroke-linecap:butt;stroke-linejoin:miter;stroke-dasharray:none;stroke-opacity:1"
         d="m 204.2934,248.79013 c -1.54454,7.99995 -3.08907,15.99989 -4.63361,23.99984 1.18401,0 2.36802,0 3.55203,0 0,4.87127 0,9.74254 0,14.61382 0.72105,0 1.4421,0 2.16315,0 0,-4.87128 0,-9.74255 0,-14.61382 1.18406,0 2.36812,0 3.55217,0 -1.54458,-7.99995 -3.08916,-15.99989 -4.63374,-23.99984 z" /><path
         id="path1318"
         style="fill:#190d0d;fill-opacity:1;stroke:none;stroke-width:0.1;stroke-linecap:butt;stroke-linejoin:miter;stroke-dasharray:none;stroke-opacity:1"
         d="m 105.50315,258.85792 c -1.54454,7.99995 -3.08907,15.99989 -4.63361,23.99984 1.18401,0 2.36802,0 3.55203,0 0,4.87127 0,9.74254 0,14.61382 0.72105,0 1.4421,0 2.16315,0 0,-4.87128 0,-9.74255 0,-14.61382 1.18406,0 2.36812,0 3.55217,0 -1.54458,-7.99995 -3.08916,-15.99989 -4.63374,-23.99984 z" /><path
         id="path1320"
         style="fill:#190d0d;fill-opacity:1;stroke:none;stroke-width:0.1;stroke-linecap:butt;stroke-linejoin:miter;stroke-dasharray:none;stroke-opacity:1"
         d="m 71.524335,253.82402 c -1.54454,7.99995 -3.08907,15.99989 -4.63361,23.99984 1.18401,0 2.36802,0 3.55203,0 0,4.87127 0,9.74254 0,14.61382 0.72105,0 1.4421,0 2.16315,0 0,-4.87128 0,-9.74255 0,-14.61382 1.18406,0 2.36812,0 3.55217,0 -1.54458,-7.99995 -3.08916,-15.99989 -4.63374,-23.99984 z" /><path
         id="path1322"
         style="fill:#190d0d;fill-opacity:1;stroke:none;stroke-width:0.1;stroke-linecap:butt;stroke-linejoin:miter;stroke-dasharray:none;stroke-opacity:1"
         d="m 44.467132,253.82402 c -1.54454,7.99995 -3.08907,15.99989 -4.63361,23.99984 1.18401,0 2.36802,0 3.55203,0 0,4.87127 0,9.74254 0,14.61382 0.72105,0 1.4421,0 2.16315,0 0,-4.87128 0,-9.74255 0,-14.61382 1.18406,0 2.36812,0 3.55217,0 -1.54458,-7.99995 -3.08916,-15.99989 -4.63374,-23.99984 z" /><path
         id="path1324"
         style="fill:#190d0d;fill-opacity:1;stroke:none;stroke-width:0.1;stroke-linecap:butt;stroke-linejoin:miter;stroke-dasharray:none;stroke-opacity:1"
         d="m 138.85273,231.80072 c -1.54454,7.99995 -3.08907,15.99989 -4.63361,23.99984 1.18401,0 2.36802,0 3.55203,0 0,4.87127 0,9.74254 0,14.61382 0.72105,0 1.4421,0 2.16315,0 0,-4.87128 0,-9.74255 0,-14.61382 1.18406,0 2.36812,0 3.55217,0 -1.54458,-7.99995 -3.08916,-15.99989 -4.63374,-23.99984 z" /><path
         id="path1326"
         style="fill:#190d0d;fill-opacity:1;stroke:none;stroke-width:0.1;stroke-linecap:butt;stroke-linejoin:miter;stroke-dasharray:none;stroke-opacity:1"
         d="m 252.74467,248.16089 c -1.54454,7.99995 -3.08907,15.99989 -4.63361,23.99984 1.18401,0 2.36802,0 3.55203,0 0,4.87127 0,9.74254 0,14.61382 0.72105,0 1.4421,0 2.16315,0 0,-4.87128 0,-9.74255 0,-14.61382 1.18406,0 2.36812,0 3.55217,0 -1.54458,-7.99995 -3.08916,-15.99989 -4.63374,-23.99984 z" /><path
         id="path1328"
         style="fill:#190d0d;fill-opacity:1;stroke:none;stroke-width:0.1;stroke-linecap:butt;stroke-linejoin:miter;stroke-dasharray:none;stroke-opacity:1"
         d="m 291.75739,256.34097 c -1.54454,7.99995 -3.08907,15.99989 -4.63361,23.99984 1.18401,0 2.36802,0 3.55203,0 0,4.87127 0,9.74254 0,14.61382 0.72105,0 1.4421,0 2.16315,0 0,-4.87128 0,-9.74255 0,-14.61382 1.18406,0 2.36812,0 3.55217,0 -1.54458,-7.99995 -3.08916,-15.99989 -4.63374,-23.99984 z" /><path
         id="path1330"
         style="fill:#190d0d;fill-opacity:1;stroke:none;stroke-width:0.1;stroke-linecap:butt;stroke-linejoin:miter;stroke-dasharray:none;stroke-opacity:1"
         d="m 208.06883,257.59945 c -1.54454,7.99995 -3.08907,15.99989 -4.63361,23.99984 1.18401,0 2.36802,0 3.55203,0 0,4.87127 0,9.74254 0,14.61382 0.72105,0 1.4421,0 2.16315,0 0,-4.87128 0,-9.74255 0,-14.61382 1.18406,0 2.36812,0 3.55217,0 -1.54458,-7.99995 -3.08916,-15.99989 -4.63374,-23.99984 z" /><path
         id="path1332"
         style="fill:#190d0d;fill-opacity:1;stroke:none;stroke-width:0.1;stroke-linecap:butt;stroke-linejoin:miter;stroke-dasharray:none;stroke-opacity:1"
         d="m 170.94383,259.48716 c -1.54454,7.99995 -3.08907,15.99989 -4.63361,23.99984 1.18401,0 2.36802,0 3.55203,0 0,4.87127 0,9.74254 0,14.61382 0.72105,0 1.4421,0 2.16315,0 0,-4.87128 0,-9.74255 0,-14.61382 1.18406,0 2.36812,0 3.55217,0 -1.54458,-7.99995 -3.08916,-15.99989 -4.63374,-23.99984 z" /><path
         id="path1334"
         style="fill:#190d0d;fill-opacity:1;stroke:none;stroke-width:0.1;stroke-linecap:butt;stroke-linejoin:miter;stroke-dasharray:none;stroke-opacity:1"
         d="m 153.95442,259.48716 c -1.54454,7.99995 -3.08907,15.99989 -4.63361,23.99984 1.18401,0 2.36802,0 3.55203,0 0,4.87127 0,9.74254 0,14.61382 0.72105,0 1.4421,0 2.16315,0 0,-4.87128 0,-9.74255 0,-14.61382 1.18406,0 2.36812,0 3.55217,0 -1.54458,-7.99995 -3.08916,-15.99989 -4.63374,-23.99984 z" /><path
         id="path1336"
         style="fill:#190d0d;fill-opacity:1;stroke:none;stroke-width:0.1;stroke-linecap:butt;stroke-linejoin:miter;stroke-dasharray:none;stroke-opacity:1"
         d="m 131.93111,260.74563 c -1.54454,7.99995 -3.08907,15.99989 -4.63361,23.99984 1.18401,0 2.36802,0 3.55203,0 0,4.87127 0,9.74254 0,14.61382 0.72105,0 1.4421,0 2.16315,0 0,-4.87128 0,-9.74255 0,-14.61382 1.18406,0 2.36812,0 3.55217,0 -1.54458,-7.99995 -3.08916,-15.99989 -4.63374,-23.99984 z" /><path
         id="path1338"
         style="fill:#190d0d;fill-opacity:1;stroke:none;stroke-width:0.1;stroke-linecap:butt;stroke-linejoin:miter;stroke-dasharray:none;stroke-opacity:1"
         d="m 121.86332,260.74563 c -1.54454,7.99995 -3.08907,15.99989 -4.63361,23.99984 1.18401,0 2.36802,0 3.55203,0 0,4.87127 0,9.74254 0,14.61382 0.72105,0 1.4421,0 2.16315,0 0,-4.87128 0,-9.74255 0,-14.61382 1.18406,0 2.36812,0 3.55217,0 -1.54458,-7.99995 -3.08916,-15.99989 -4.63374,-23.99984 z" /><path
         id="path1340"
         style="fill:#190d0d;fill-opacity:1;stroke:none;stroke-width:0.1;stroke-linecap:butt;stroke-linejoin:miter;stroke-dasharray:none;stroke-opacity:1"
         d="m 97.952301,262.00411 c -1.54454,7.99995 -3.08907,15.99989 -4.63361,23.99984 1.18401,0 2.36802,0 3.55203,0 0,4.87127 0,9.74254 0,14.61382 0.72105,0 1.4421,0 2.16315,0 0,-4.87128 0,-9.74255 0,-14.61382 1.184059,0 2.368119,0 3.552169,0 -1.54458,-7.99995 -3.089159,-15.99989 -4.633739,-23.99984 z" /><path
         id="path1342"
         style="fill:#190d0d;fill-opacity:1;stroke:none;stroke-width:0.1;stroke-linecap:butt;stroke-linejoin:miter;stroke-dasharray:none;stroke-opacity:1"
         d="m 75.928996,260.74563 c -1.54454,7.99995 -3.08907,15.99989 -4.63361,23.99984 1.18401,0 2.36802,0 3.55203,0 0,4.87127 0,9.74254 0,14.61382 0.72105,0 1.4421,0 2.16315,0 0,-4.87128 0,-9.74255 0,-14.61382 1.18406,0 2.36812,0 3.55217,0 -1.54458,-7.99995 -3.08916,-15.99989 -4.63374,-23.99984 z" /><path
         id="path1344"
         style="fill:#190d0d;fill-opacity:1;stroke:none;stroke-width:0.1;stroke-linecap:butt;stroke-linejoin:miter;stroke-dasharray:none;stroke-opacity:1"
         d="m 62.085776,255.71174 c -1.54454,7.99995 -3.08907,15.99989 -4.63361,23.99984 1.18401,0 2.36802,0 3.55203,0 0,4.87127 0,9.74254 0,14.61382 0.72105,0 1.4421,0 2.16315,0 0,-4.87128 0,-9.74255 0,-14.61382 1.18406,0 2.36812,0 3.55217,0 -1.54458,-7.99995 -3.08916,-15.99989 -4.63374,-23.99984 z" /><path
         id="path1346"
         style="fill:#190d0d;fill-opacity:1;stroke:none;stroke-width:0.1;stroke-linecap:butt;stroke-linejoin:miter;stroke-dasharray:none;stroke-opacity:1"
         d="m 52.017979,251.93631 c -1.54454,7.99995 -3.08907,15.99989 -4.63361,23.99984 1.18401,0 2.36802,0 3.55203,0 0,4.87127 0,9.74254 0,14.61382 0.72105,0 1.4421,0 2.16315,0 0,-4.87128 0,-9.74255 0,-14.61382 1.18406,0 2.36812,0 3.55217,0 -1.54458,-7.99995 -3.08916,-15.99989 -4.63374,-23.99984 z" /><path
         id="path1348"
         style="fill:#190d0d;fill-opacity:1;stroke:none;stroke-width:0.1;stroke-linecap:butt;stroke-linejoin:miter;stroke-dasharray:none;stroke-opacity:1"
         d="m 29.365437,246.90241 c -1.54454,7.99995 -3.08907,15.99989 -4.63361,23.99984 1.18401,0 2.36802,0 3.55203,0 0,4.87127 0,9.74254 0,14.61382 0.72105,0 1.4421,0 2.16315,0 0,-4.87128 0,-9.74255 0,-14.61382 1.18406,0 2.36812,0 3.55217,0 -1.54458,-7.99995 -3.08916,-15.99989 -4.63374,-23.99984 z" /><path
         id="path1350"
         style="fill:#190d0d;fill-opacity:1;stroke:none;stroke-width:0.1;stroke-linecap:butt;stroke-linejoin:miter;stroke-dasharray:none;stroke-opacity:1"
         d="m 66.490437,246.90241 c -1.54454,7.99995 -3.08907,15.99989 -4.63361,23.99984 1.18401,0 2.36802,0 3.55203,0 0,4.87127 0,9.74254 0,14.61382 0.72105,0 1.4421,0 2.16315,0 0,-4.87128 0,-9.74255 0,-14.61382 1.18406,0 2.36812,0 3.55217,0 -1.54458,-7.99995 -3.08916,-15.99989 -4.63374,-23.99984 z" /><path
         id="path1352"
         style="fill:#190d0d;fill-opacity:1;stroke:none;stroke-width:0.1;stroke-linecap:butt;stroke-linejoin:miter;stroke-dasharray:none;stroke-opacity:1"
         d="m 87.884505,246.90241 c -1.54454,7.99995 -3.08907,15.99989 -4.63361,23.99984 1.18401,0 2.36802,0 3.55203,0 0,4.87127 0,9.74254 0,14.61382 0.72105,0 1.4421,0 2.16315,0 0,-4.87128 0,-9.74255 0,-14.61382 1.18406,0 2.36812,0 3.55217,0 -1.54458,-7.99995 -3.08916,-15.99989 -4.63374,-23.99984 z" /><path
         id="path1354"
         style="fill:#190d0d;fill-opacity:1;stroke:none;stroke-width:0.1;stroke-linecap:butt;stroke-linejoin:miter;stroke-dasharray:none;stroke-opacity:1"
         d="m 97.323064,246.90241 c -1.54454,7.99995 -3.08907,15.99989 -4.63361,23.99984 1.18401,0 2.36802,0 3.55203,0 0,4.87127 0,9.74254 0,14.61382 0.72105,0 1.4421,0 2.16315,0 0,-4.87128 0,-9.74255 0,-14.61382 1.18406,0 2.368116,0 3.552166,0 -1.54458,-7.99995 -3.089156,-15.99989 -4.633736,-23.99984 z" /><path
         id="path1356"
         style="fill:#190d0d;fill-opacity:1;stroke:none;stroke-width:0.1;stroke-linecap:butt;stroke-linejoin:miter;stroke-dasharray:none;stroke-opacity:1"
         d="m 109.90781,245.0147 c -1.54454,7.99995 -3.08907,15.99989 -4.63361,23.99984 1.18401,0 2.36802,0 3.55203,0 0,4.87127 0,9.74254 0,14.61382 0.72105,0 1.4421,0 2.16315,0 0,-4.87128 0,-9.74255 0,-14.61382 1.18406,0 2.36812,0 3.55217,0 -1.54458,-7.99995 -3.08916,-15.99989 -4.63374,-23.99984 z" /><path
         id="path1358"
         style="fill:#190d0d;fill-opacity:1;stroke:none;stroke-width:0.1;stroke-linecap:butt;stroke-linejoin:miter;stroke-dasharray:none;stroke-opacity:1"
         d="m 124.38027,245.0147 c -1.54454,7.99995 -3.08907,15.99989 -4.63361,23.99984 1.18401,0 2.36802,0 3.55203,0 0,4.87127 0,9.74254 0,14.61382 0.72105,0 1.4421,0 2.16315,0 0,-4.87128 0,-9.74255 0,-14.61382 1.18406,0 2.36812,0 3.55217,0 -1.54458,-7.99995 -3.08916,-15.99989 -4.63374,-23.99984 z" /><path
         id="path1360"
         style="fill:#190d0d;fill-opacity:1;stroke:none;stroke-width:0.1;stroke-linecap:butt;stroke-linejoin:miter;stroke-dasharray:none;stroke-opacity:1"
         d="m 142.62815,246.27318 c -1.54454,7.99995 -3.08907,15.99989 -4.63361,23.99984 1.18401,0 2.36802,0 3.55203,0 0,4.87127 0,9.74254 0,14.61382 0.72105,0 1.4421,0 2.16315,0 0,-4.87128 0,-9.74255 0,-14.61382 1.18406,0 2.36812,0 3.55217,0 -1.54458,-7.99995 -3.08916,-15.99989 -4.63374,-23.99984 z" /><path
         id="path1362"
         style="fill:#190d0d;fill-opacity:1;stroke:none;stroke-width:0.1;stroke-linecap:butt;stroke-linejoin:miter;stroke-dasharray:none;stroke-opacity:1"
         d="m 131.93111,245.64394 c -1.54454,7.99995 -3.08907,15.99989 -4.63361,23.99984 1.18401,0 2.36802,0 3.55203,0 0,4.87127 0,9.74254 0,14.61382 0.72105,0 1.4421,0 2.16315,0 0,-4.87128 0,-9.74255 0,-14.61382 1.18406,0 2.36812,0 3.55217,0 -1.54458,-7.99995 -3.08916,-15.99989 -4.63374,-23.99984 z" /><path
         id="path1364"
         style="fill:#190d0d;fill-opacity:1;stroke:none;stroke-width:0.1;stroke-linecap:butt;stroke-linejoin:miter;stroke-dasharray:none;stroke-opacity:1"
         d="m 166.53917,244.38546 c -1.54454,7.99995 -3.08907,15.99989 -4.63361,23.99984 1.18401,0 2.36802,0 3.55203,0 0,4.87127 0,9.74254 0,14.61382 0.72105,0 1.4421,0 2.16315,0 0,-4.87128 0,-9.74255 0,-14.61382 1.18406,0 2.36812,0 3.55217,0 -1.54458,-7.99995 -3.08916,-15.99989 -4.63374,-23.99984 z" /><path
         id="path1366"
         style="fill:#190d0d;fill-opacity:1;stroke:none;stroke-width:0.1;stroke-linecap:butt;stroke-linejoin:miter;stroke-dasharray:none;stroke-opacity:1"
         d="m 191.70866,242.49775 c -1.54454,7.99995 -3.08907,15.99989 -4.63361,23.99984 1.18401,0 2.36802,0 3.55203,0 0,4.87127 0,9.74254 0,14.61382 0.72105,0 1.4421,0 2.16315,0 0,-4.87128 0,-9.74255 0,-14.61382 1.18406,0 2.36812,0 3.55217,0 -1.54458,-7.99995 -3.08916,-15.99989 -4.63374,-23.99984 z" /><path
         id="path1368"
         style="fill:#190d0d;fill-opacity:1;stroke:none;stroke-width:0.1;stroke-linecap:butt;stroke-linejoin:miter;stroke-dasharray:none;stroke-opacity:1"
         d="m 209.95654,243.12699 c -1.54454,7.99995 -3.08907,15.99989 -4.63361,23.99984 1.18401,0 2.36802,0 3.55203,0 0,4.87127 0,9.74254 0,14.61382 0.72105,0 1.4421,0 2.16315,0 0,-4.87128 0,-9.74255 0,-14.61382 1.18406,0 2.36812,0 3.55217,0 -1.54458,-7.99995 -3.08916,-15.99989 -4.63374,-23.99984 z" /><path
         id="path1370"
         style="fill:#190d0d;fill-opacity:1;stroke:none;stroke-width:0.1;stroke-linecap:butt;stroke-linejoin:miter;stroke-dasharray:none;stroke-opacity:1"
         d="m 224.429,243.75623 c -1.54454,7.99995 -3.08907,15.99989 -4.63361,23.99984 1.18401,0 2.36802,0 3.55203,0 0,4.87127 0,9.74254 0,14.61382 0.72105,0 1.4421,0 2.16315,0 0,-4.87128 0,-9.74255 0,-14.61382 1.18406,0 2.36812,0 3.55217,0 -1.54458,-7.99995 -3.08916,-15.99989 -4.63374,-23.99984 z" /><path
         id="path1372"
         style="fill:#190d0d;fill-opacity:1;stroke:none;stroke-width:0.1;stroke-linecap:butt;stroke-linejoin:miter;stroke-dasharray:none;stroke-opacity:1"
         d="m 176.60696,245.0147 c -1.54454,7.99995 -3.08907,15.99989 -4.63361,23.99984 1.18401,0 2.36802,0 3.55203,0 0,4.87127 0,9.74254 0,14.61382 0.72105,0 1.4421,0 2.16315,0 0,-4.87128 0,-9.74255 0,-14.61382 1.18406,0 2.36812,0 3.55217,0 -1.54458,-7.99995 -3.08916,-15.99989 -4.63374,-23.99984 z" /><path
         id="path1374"
         style="fill:#190d0d;fill-opacity:1;stroke:none;stroke-width:0.1;stroke-linecap:butt;stroke-linejoin:miter;stroke-dasharray:none;stroke-opacity:1"
         d="m 231.35061,250.67784 c -1.54454,7.99995 -3.08907,15.99989 -4.63361,23.99984 1.18401,0 2.36802,0 3.55203,0 0,4.87127 0,9.74254 0,14.61382 0.72105,0 1.4421,0 2.16315,0 0,-4.87128 0,-9.74255 0,-14.61382 1.18406,0 2.36812,0 3.55217,0 -1.54458,-7.99995 -3.08916,-15.99989 -4.63374,-23.99984 z" /><path
         id="path1376"
         style="fill:#190d0d;fill-opacity:1;stroke:none;stroke-width:0.1;stroke-linecap:butt;stroke-linejoin:miter;stroke-dasharray:none;stroke-opacity:1"
         d="m 242.04764,248.79013 c -1.54454,7.99995 -3.08907,15.99989 -4.63361,23.99984 1.18401,0 2.36802,0 3.55203,0 0,4.87127 0,9.74254 0,14.61382 0.72105,0 1.4421,0 2.16315,0 0,-4.87128 0,-9.74255 0,-14.61382 1.18406,0 2.36812,0 3.55217,0 -1.54458,-7.99995 -3.08916,-15.99989 -4.63374,-23.99984 z" /><path
         id="path1378"
         style="fill:#190d0d;fill-opacity:1;stroke:none;stroke-width:0.1;stroke-linecap:butt;stroke-linejoin:miter;stroke-dasharray:none;stroke-opacity:1"
         d="m 247.08154,248.16089 c -1.54454,7.99995 -3.08907,15.99989 -4.63361,23.99984 1.18401,0 2.36802,0 3.55203,0 0,4.87127 0,9.74254 0,14.61382 0.72105,0 1.4421,0 2.16315,0 0,-4.87128 0,-9.74255 0,-14.61382 1.18406,0 2.36812,0 3.55217,0 -1.54458,-7.99995 -3.08916,-15.99989 -4.63374,-23.99984 z" /><path
         id="path1380"
         style="fill:#190d0d;fill-opacity:1;stroke:none;stroke-width:0.1;stroke-linecap:butt;stroke-linejoin:miter;stroke-dasharray:none;stroke-opacity:1"
         d="m 265.95866,247.53165 c -1.54454,7.99995 -3.08907,15.99989 -4.63361,23.99984 1.18401,0 2.36802,0 3.55203,0 0,4.87127 0,9.74254 0,14.61382 0.72105,0 1.4421,0 2.16315,0 0,-4.87128 0,-9.74255 0,-14.61382 1.18406,0 2.36812,0 3.55217,0 -1.54458,-7.99995 -3.08916,-15.99989 -4.63374,-23.99984 z" /><path
         id="path1382"
         style="fill:#190d0d;fill-opacity:1;stroke:none;stroke-width:0.1;stroke-linecap:butt;stroke-linejoin:miter;stroke-dasharray:none;stroke-opacity:1"
         d="m 282.31883,247.53165 c -1.54454,7.99995 -3.08907,15.99989 -4.63361,23.99984 1.18401,0 2.36802,0 3.55203,0 0,4.87127 0,9.74254 0,14.61382 0.72105,0 1.4421,0 2.16315,0 0,-4.87128 0,-9.74255 0,-14.61382 1.18406,0 2.36812,0 3.55217,0 -1.54458,-7.99995 -3.08916,-15.99989 -4.63374,-23.99984 z" /><path
         id="path1384"
         style="fill:#190d0d;fill-opacity:1;stroke:none;stroke-width:0.1;stroke-linecap:butt;stroke-linejoin:miter;stroke-dasharray:none;stroke-opacity:1"
         d="m 262.81247,248.16089 c -1.54454,7.99995 -3.08907,15.99989 -4.63361,23.99984 1.18401,0 2.36802,0 3.55203,0 0,4.87127 0,9.74254 0,14.61382 0.72105,0 1.4421,0 2.16315,0 0,-4.87128 0,-9.74255 0,-14.61382 1.18406,0 2.36812,0 3.55217,0 -1.54458,-7.99995 -3.08916,-15.99989 -4.63374,-23.99984 z" /><path
         id="path1386"
         style="fill:#190d0d;fill-opacity:1;stroke:none;stroke-width:0.1;stroke-linecap:butt;stroke-linejoin:miter;stroke-dasharray:none;stroke-opacity:1"
         d="m 297.42052,249.41936 c -1.54454,7.99995 -3.08907,15.99989 -4.63361,23.99984 1.18401,0 2.36802,0 3.55203,0 0,4.87127 0,9.74254 0,14.61382 0.72105,0 1.4421,0 2.16315,0 0,-4.87128 0,-9.74255 0,-14.61382 1.18406,0 2.36812,0 3.55217,0 -1.54458,-7.99995 -3.08916,-15.99989 -4.63374,-23.99984 z" /><path
         id="path719"
         style="fill:#190d0d;fill-opacity:1;stroke:none;stroke-width:0.1;stroke-linecap:butt;stroke-linejoin:miter;stroke-dasharray:none;stroke-opacity:1"
         d="m 228.20442,245.64394 c -1.54454,7.99995 -3.08907,15.99989 -4.63361,23.99984 1.18401,0 2.36802,0 3.55203,0 0,4.87127 0,9.74254 0,14.61382 0.72105,0 1.4421,0 2.16315,0 0,-4.87128 0,-9.74255 0,-14.61382 1.18406,0 2.36812,0 3.55217,0 -1.54458,-7.99995 -3.08916,-15.99989 -4.63374,-23.99984 z" /></g><g
       id="g3282"><g
         id="g2876"><g
           id="g3254"><rect
             style="fill:#000000;stroke-width:5.97699;stroke-linejoin:round;stop-color:#000000;fill-opacity:0"
             id="rect2864"
             width="300"
             height="300"
             x="0"
             y="0" /><g
             id="g2869"><path
               style="fill:#210e0d;stroke-width:0.0928462;fill-opacity:0.80882353"
               d="m 30.441227,107.22696 c -3.143495,-0.57475 -5.516409,-2.66374 -6.489659,-5.71314 -0.338161,-1.05955 -0.421548,-2.835839 -0.187772,-3.999962 0.650083,-3.237178 3.153204,-5.76955 6.37221,-6.446696 0.360419,-0.07581 0.814111,-0.137845 1.008208,-0.137845 h 0.3529 l -0.23792,-0.85883 c -0.213624,-0.77111 -0.237899,-1.024785 -0.237663,-2.48364 2.31e-4,-1.471922 0.02379,-1.712184 0.250274,-2.553278 0.505998,-1.879072 1.647576,-3.683969 3.139571,-4.963843 1.144078,-0.981418 2.429155,-1.651757 3.943287,-2.056942 1.040398,-0.278416 3.127813,-0.344669 4.244975,-0.134728 3.116649,0.585674 5.722709,2.571459 7.076549,5.392239 l 0.414166,0.862932 0.62716,-0.217632 c 3.483779,-1.208922 7.368589,0.356814 8.993729,3.624825 0.22856,0.459592 0.46823,1.042746 0.5326,1.295907 l 0.11706,0.460284 1.66617,0.009 c 1.41356,0.0076 1.77785,0.03998 2.40274,0.213405 3.14581,0.872944 5.45762,3.133833 6.42628,6.284737 0.2407,0.782936 0.25675,0.94098 0.25462,2.506856 -0.002,1.552677 -0.0203,1.730111 -0.256,2.501131 -0.94243,3.08259 -3.31736,5.39481 -6.41869,6.2492 l -0.92846,0.25578 -16.201716,0.0157 c -12.981775,0.0126 -16.333461,-0.008 -16.864619,-0.10548 z"
               id="path1870" /><path
               style="fill:#210e0d;stroke-width:0.106296;fill-opacity:0.80882353"
               d="m 146.40138,50.869986 c -3.59886,-0.658007 -6.3155,-3.049609 -7.42974,-6.540738 -0.38714,-1.213028 -0.48261,-3.246632 -0.21497,-4.579388 0.74425,-3.70611 3.60997,-6.605316 7.29528,-7.380553 0.41263,-0.08679 0.93204,-0.157813 1.15426,-0.157813 h 0.40402 l -0.27239,-0.983238 c -0.24457,-0.882812 -0.27236,-1.173234 -0.27209,-2.843416 2.6e-4,-1.685142 0.0272,-1.960208 0.28653,-2.923141 0.5793,-2.151271 1.88623,-4.217623 3.59436,-5.682897 1.30981,-1.123584 2.78104,-1.891028 4.51451,-2.354907 1.1911,-0.318747 3.5809,-0.394597 4.85989,-0.154244 3.56812,0.670513 6.55169,2.943956 8.10165,6.173349 l 0.47416,0.987935 0.71801,-0.249158 c 3.98842,-1.384044 8.43598,0.408501 10.29654,4.149911 0.26167,0.526167 0.53605,1.193796 0.60975,1.483629 l 0.13402,0.52696 1.90752,0.0103 c 1.61833,0.0087 2.03539,0.04577 2.7508,0.244319 3.60151,0.999397 6.2482,3.587794 7.35718,7.195133 0.27557,0.89635 0.29394,1.077288 0.2915,2.869994 -0.002,1.777595 -0.0232,1.980728 -0.29308,2.863437 -1.07895,3.529137 -3.79791,6.176301 -7.34849,7.154453 l -1.06296,0.292832 -18.54866,0.01797 c -14.86229,0.01442 -18.69949,-0.0092 -19.3076,-0.120759 z"
               id="path1919" /><path
               style="fill:#210e0d;stroke-width:0.163306;fill-opacity:0.80882353"
               d="m 212.52369,150.88919 c -5.52906,-1.01091 -9.70273,-4.68521 -11.41457,-10.04876 -0.59478,-1.86362 -0.74145,-4.98793 -0.33027,-7.03548 1.14342,-5.69382 5.54612,-10.14798 11.208,-11.339 0.63393,-0.13335 1.43192,-0.24246 1.77333,-0.24246 h 0.62071 l -0.41848,-1.51059 c -0.37575,-1.35629 -0.41844,-1.80247 -0.41803,-4.36843 4e-4,-2.58894 0.0418,-3.01154 0.44021,-4.49092 0.89,-3.30507 2.89788,-6.4797 5.52214,-8.73085 2.01231,-1.72619 4.27261,-2.90525 6.9358,-3.617927 1.82993,-0.489696 5.50147,-0.606227 7.46642,-0.236964 5.48183,1.030131 10.0656,4.522911 12.44686,9.484341 l 0.72846,1.51779 1.10311,-0.38278 c 6.12755,-2.12637 12.96049,0.6276 15.81894,6.37566 0.40201,0.80835 0.82355,1.83406 0.93678,2.27935 l 0.2059,0.80959 2.93059,0.0158 c 2.48629,0.0138 3.12704,0.0704 4.22615,0.37534 5.53313,1.53542 9.59933,5.51207 11.30309,11.05415 0.42337,1.37709 0.45159,1.65508 0.44785,4.40927 -0.003,2.73099 -0.0357,3.04306 -0.45027,4.3992 -1.65763,5.42194 -5.83487,9.48887 -11.28975,10.99164 l -1.63306,0.44988 -28.49696,0.0276 c -22.83346,0.0221 -28.72869,-0.0138 -29.66295,-0.18552 z"
               id="path1921" /></g></g></g><g
         id="g3260"><rect
           style="fill:#000000;fill-opacity:0;stroke-width:5.97699;stroke-linejoin:round;stop-color:#000000"
           id="rect2820"
           width="300"
           height="300"
           x="300"
           y="0" /><path
           style="fill:#210e0d;fill-opacity:0.808824;stroke-width:0.0928462"
           d="m 330.44123,107.22696 c -3.1435,-0.57475 -5.51641,-2.66374 -6.48966,-5.71314 -0.33816,-1.05955 -0.42155,-2.835839 -0.18777,-3.999962 0.65008,-3.237178 3.1532,-5.76955 6.37221,-6.446696 0.36041,-0.07581 0.81411,-0.137845 1.0082,-0.137845 h 0.3529 l -0.23792,-0.85883 c -0.21362,-0.77111 -0.2379,-1.024785 -0.23766,-2.48364 2.3e-4,-1.471922 0.0238,-1.712184 0.25028,-2.553278 0.50599,-1.879072 1.64757,-3.683969 3.13957,-4.963843 1.14407,-0.981418 2.42915,-1.651757 3.94328,-2.056942 1.0404,-0.278416 3.12782,-0.344669 4.24498,-0.134728 3.11665,0.585674 5.72271,2.571459 7.07655,5.392239 l 0.41416,0.862932 0.62716,-0.217632 c 3.48378,-1.208922 7.36859,0.356814 8.99373,3.624825 0.22856,0.459592 0.46823,1.042746 0.5326,1.295907 l 0.11706,0.460284 1.66617,0.009 c 1.41356,0.0076 1.77785,0.03998 2.40274,0.213405 3.14581,0.872944 5.45762,3.133833 6.42628,6.284737 0.2407,0.782936 0.25675,0.94098 0.25462,2.506856 -0.002,1.552677 -0.0203,1.730111 -0.256,2.501131 -0.94243,3.08259 -3.31736,5.39481 -6.41869,6.2492 l -0.92846,0.25578 -16.20171,0.0157 c -12.98178,0.0126 -16.33346,-0.008 -16.86462,-0.10548 z"
           id="path2822" /><path
           style="fill:#210e0d;fill-opacity:0.808824;stroke-width:0.106296"
           d="m 446.40138,50.869986 c -3.59886,-0.658007 -6.3155,-3.049609 -7.42974,-6.540738 -0.38714,-1.213028 -0.48261,-3.246632 -0.21497,-4.579388 0.74425,-3.70611 3.60997,-6.605316 7.29528,-7.380553 0.41263,-0.08679 0.93204,-0.157813 1.15426,-0.157813 h 0.40402 l -0.27239,-0.983238 c -0.24457,-0.882812 -0.27236,-1.173234 -0.27209,-2.843416 2.6e-4,-1.685142 0.0272,-1.960208 0.28653,-2.923141 0.5793,-2.151271 1.88623,-4.217623 3.59436,-5.682897 1.30981,-1.123584 2.78104,-1.891028 4.51451,-2.354907 1.1911,-0.318747 3.5809,-0.394597 4.85989,-0.154244 3.56812,0.670513 6.55169,2.943956 8.10165,6.173349 l 0.47416,0.987935 0.71801,-0.249158 c 3.98842,-1.384044 8.43598,0.408501 10.29654,4.149911 0.26167,0.526167 0.53605,1.193796 0.60975,1.483629 l 0.13402,0.52696 1.90752,0.0103 c 1.61833,0.0087 2.03539,0.04577 2.7508,0.244319 3.60151,0.999397 6.2482,3.587794 7.35718,7.195133 0.27557,0.89635 0.29394,1.077288 0.2915,2.869994 -0.002,1.777595 -0.0232,1.980728 -0.29308,2.863437 -1.07895,3.529137 -3.79791,6.176301 -7.34849,7.154453 l -1.06296,0.292832 -18.54866,0.01797 c -14.86229,0.01442 -18.69949,-0.0092 -19.3076,-0.120759 z"
           id="path2824" /><path
           style="fill:#210e0d;fill-opacity:0.808824;stroke-width:0.163306"
           d="m 512.52369,150.88919 c -5.52906,-1.01091 -9.70273,-4.68521 -11.41457,-10.04876 -0.59478,-1.86362 -0.74145,-4.98793 -0.33027,-7.03548 1.14342,-5.69382 5.54612,-10.14798 11.208,-11.339 0.63393,-0.13335 1.43192,-0.24246 1.77333,-0.24246 h 0.62071 l -0.41848,-1.51059 c -0.37575,-1.35629 -0.41844,-1.80247 -0.41803,-4.36843 4e-4,-2.58894 0.0418,-3.01154 0.44021,-4.49092 0.89,-3.30507 2.89788,-6.4797 5.52214,-8.73085 2.01231,-1.72619 4.27261,-2.90525 6.9358,-3.617927 1.82993,-0.489696 5.50147,-0.606227 7.46642,-0.236964 5.48183,1.030131 10.0656,4.522911 12.44686,9.484341 l 0.72846,1.51779 1.10311,-0.38278 c 6.12755,-2.12637 12.96049,0.6276 15.81894,6.37566 0.40201,0.80835 0.82355,1.83406 0.93678,2.27935 l 0.2059,0.80959 2.93059,0.0158 c 2.48629,0.0138 3.12704,0.0704 4.22615,0.37534 5.53313,1.53542 9.59933,5.51207 11.30309,11.05415 0.42337,1.37709 0.45159,1.65508 0.44785,4.40927 -0.003,2.73099 -0.0357,3.04306 -0.45027,4.3992 -1.65763,5.42194 -5.83487,9.48887 -11.28975,10.99164 l -1.63306,0.44988 -28.49696,0.0276 c -22.83346,0.0221 -28.72869,-0.0138 -29.66295,-0.18552 z"
           id="path2826" /></g></g></g></svg>
